/* XPM */
static char * gm_powermeter_default_04_xpm[] = {
"22 22 4 1",
" 	c None",
".	c #000000",
"+	c #D97000",
"@	c #FFB24A",
"                      ",
"                      ",
"                      ",
"                      ",
"               .....  ",
"               .+++.  ",
"               .+@@.  ",
"           .....+@@.  ",
"           .+++.+@@.  ",
"           .+@@.+@@.  ",
"       .....+@@.+@@.  ",
"       .+++.+@@.+@@.  ",
"       .+@@.+@@.+@@.  ",
"   .....+@@.+@@.+@@.  ",
"   .+++.+@@.+@@.+@@.  ",
"   .+@@.+@@.+@@.+@@.  ",
"   .+@@.+@@.+@@.+@@.  ",
"   .+@@.+@@.+@@.+@@.  ",
"   .+@@.+@@.+@@.+@@.  ",
"   .................  ",
"                      ",
"                      "};
