/* XPM */
static char * gm_powermeter_default_02_xpm[] = {
"22 22 59 1",
" 	c None",
".	c #000000",
"+	c #9C9991",
"@	c #9D9991",
"#	c #9C9A92",
"$	c #A09E97",
"%	c #CCCCCC",
"&	c #A4A29C",
"*	c #CECFCF",
"=	c #CECFCE",
"-	c #A6A59F",
";	c #A7A5A0",
">	c #A8A7A1",
",	c #D0D1D0",
"'	c #D1D1D0",
")	c #ABA9A4",
"!	c #C8C8C8",
"~	c #C9C8C8",
"{	c #ACABA7",
"]	c #D3D3D3",
"^	c #AFAEA9",
"/	c #B1B0AC",
"(	c #D6D5D5",
"_	c #D6D6D6",
":	c #D97000",
"<	c #B2B1AF",
"[	c #CFD0D0",
"}	c #D0CFCF",
"|	c #B4B3B1",
"1	c #D8D8D8",
"2	c #FFB24A",
"3	c #B7B5B3",
"4	c #D3D3D2",
"5	c #B8B8B5",
"6	c #DADBDA",
"7	c #DADADA",
"8	c #BAB9B8",
"9	c #BBBBBA",
"0	c #DDDDDD",
"a	c #BEBDBD",
"b	c #D9D9D9",
"c	c #BFBEBE",
"d	c #E0DFDF",
"e	c #DFE0DF",
"f	c #C1C2C1",
"g	c #DCDDDD",
"h	c #DCDDDC",
"i	c #C2C2C2",
"j	c #E1E2E2",
"k	c #E2E2E2",
"l	c #E0DFE0",
"m	c #DFE0E0",
"n	c #E3E4E4",
"o	c #E4E3E3",
"p	c #E2E3E3",
"q	c #E2E3E2",
"r	c #E6E6E6",
"s	c #E5E5E6",
"t	c #E9E9E9",
"                      ",
"                      ",
"                      ",
"                      ",
"               .....  ",
"               .+@#.  ",
"               .$%%.  ",
"           .....&*=.  ",
"           .-;;.>,'.  ",
"           .)!~.{]].  ",
"       .....^%%./(_.  ",
"       .:::.<[}.|11.  ",
"       .:22.3]4.567.  ",
"   .....:22.8__.900.  ",
"   .:::.:22.abb.cde.  ",
"   .:22.:22.fgh.ijk.  ",
"   .:22.:22.ilm.ino.  ",
"   .:22.:22.ipq.irr.  ",
"   .:22.:22.irs.itt.  ",
"   .................  ",
"                      ",
"                      "};
