/* XPM */
static char * gm_powermeter_default_03_xpm[] = {
"22 22 37 1",
" 	c None",
".	c #000000",
"+	c #9C9991",
"@	c #9D9991",
"#	c #9C9A92",
"$	c #A09E97",
"%	c #CCCCCC",
"&	c #A4A29C",
"*	c #CECFCF",
"=	c #CECFCE",
"-	c #D97000",
";	c #A8A7A1",
">	c #D0D1D0",
",	c #D1D1D0",
"'	c #FFB24A",
")	c #ACABA7",
"!	c #D3D3D3",
"~	c #B1B0AC",
"{	c #D6D5D5",
"]	c #D6D6D6",
"^	c #B4B3B1",
"/	c #D8D8D8",
"(	c #B8B8B5",
"_	c #DADBDA",
":	c #DADADA",
"<	c #BBBBBA",
"[	c #DDDDDD",
"}	c #BFBEBE",
"|	c #E0DFDF",
"1	c #DFE0DF",
"2	c #C2C2C2",
"3	c #E1E2E2",
"4	c #E2E2E2",
"5	c #E3E4E4",
"6	c #E4E3E3",
"7	c #E6E6E6",
"8	c #E9E9E9",
"                      ",
"                      ",
"                      ",
"                      ",
"               .....  ",
"               .+@#.  ",
"               .$%%.  ",
"           .....&*=.  ",
"           .---.;>,.  ",
"           .-''.)!!.  ",
"       .....-''.~{].  ",
"       .---.-''.^//.  ",
"       .-''.-''.(_:.  ",
"   .....-''.-''.<[[.  ",
"   .---.-''.-''.}|1.  ",
"   .-''.-''.-''.234.  ",
"   .-''.-''.-''.256.  ",
"   .-''.-''.-''.277.  ",
"   .-''.-''.-''.288.  ",
"   .................  ",
"                      ",
"                      "};
