/* XPM */
static char * gm_powermeter_default_01_xpm[] = {
"22 22 73 1",
" 	c None",
".	c #000000",
"+	c #9C9991",
"@	c #9D9991",
"#	c #9C9A92",
"$	c #A09E97",
"%	c #CCCCCC",
"&	c #A4A29C",
"*	c #CECFCF",
"=	c #CECFCE",
"-	c #A6A59F",
";	c #A7A5A0",
">	c #A8A7A1",
",	c #D0D1D0",
"'	c #D1D1D0",
")	c #ABA9A4",
"!	c #C8C8C8",
"~	c #C9C8C8",
"{	c #ACABA7",
"]	c #D3D3D3",
"^	c #AFAEA9",
"/	c #B1B0AC",
"(	c #D6D5D5",
"_	c #D6D6D6",
":	c #B1B0AD",
"<	c #B1B1AC",
"[	c #B2B1AE",
"}	c #B2B1AF",
"|	c #CFD0D0",
"1	c #D0CFCF",
"2	c #B4B3B1",
"3	c #D8D8D8",
"4	c #B4B4B1",
"5	c #B7B5B3",
"6	c #D3D3D2",
"7	c #B8B8B5",
"8	c #DADBDA",
"9	c #DADADA",
"0	c #B8B8B6",
"a	c #CDCECD",
"b	c #CECDCD",
"c	c #BAB9B8",
"d	c #BBBBBA",
"e	c #DDDDDD",
"f	c #D97000",
"g	c #BCBBBA",
"h	c #BEBDBD",
"i	c #D9D9D9",
"j	c #BFBEBE",
"k	c #E0DFDF",
"l	c #DFE0DF",
"m	c #FFB24A",
"n	c #C0BFBE",
"o	c #D9D8D8",
"p	c #D9D8D9",
"q	c #C1C2C1",
"r	c #DCDDDD",
"s	c #DCDDDC",
"t	c #C2C2C2",
"u	c #E1E2E2",
"v	c #E2E2E2",
"w	c #DEDDDE",
"x	c #DEDEDE",
"y	c #E0DFE0",
"z	c #DFE0E0",
"A	c #E3E4E4",
"B	c #E4E3E3",
"C	c #E3E3E3",
"D	c #E2E3E3",
"E	c #E2E3E2",
"F	c #E6E6E6",
"G	c #E9E9E9",
"H	c #E5E5E6",
"                      ",
"                      ",
"                      ",
"                      ",
"               .....  ",
"               .+@#.  ",
"               .$%%.  ",
"           .....&*=.  ",
"           .-;;.>,'.  ",
"           .)!~.{]].  ",
"       .....^%%./(_.  ",
"       .:<[.}|1.233.  ",
"       .4!!.5]6.789.  ",
"   .....0ab.c__.dee.  ",
"   .fff.g]].hii.jkl.  ",
"   .fmm.nop.qrs.tuv.  ",
"   .fmm.twx.tyz.tAB.  ",
"   .fmm.tCC.tDE.tFF.  ",
"   .fmm.tGG.tFH.tGG.  ",
"   .................  ",
"                      ",
"                      "};
